<svg xmlns="http://www.w3.org/2000/svg" width="1200" height="800" viewBox="0 0 1200 800" role="img" preserveAspectRatio="xMidYMid slice"><defs><linearGradient id="bg" x1="0.15" y1="0" x2="0.85" y2="1"><stop offset="0%" stop-color="#FAF7F2"/><stop offset="55%" stop-color="#E8DAC0"/><stop offset="100%" stop-color="#d2bb91"/></linearGradient><radialGradient id="ig" cx="50%" cy="42%" r="62%"><stop offset="0%" stop-color="#ffffff" stop-opacity="0.5"/><stop offset="55%" stop-color="#ffffff" stop-opacity="0.12"/><stop offset="100%" stop-color="#ffffff" stop-opacity="0"/></radialGradient><radialGradient id="sh" cx="50%" cy="50%" r="50%"><stop offset="0%" stop-color="#0A2540" stop-opacity="0.22"/><stop offset="100%" stop-color="#0A2540" stop-opacity="0"/></radialGradient></defs><rect width="1200" height="800" fill="url(#bg)"/><rect width="1200" height="800" fill="url(#ig)"/><ellipse cx="600" cy="588" rx="420" ry="60" fill="url(#sh)"/><path d="M379.2 583.5 C385.3 562.0 422.1 555.9 458.9 552.8 L517.2 531.3 C541.7 500.7 600.0 491.5 658.3 494.5 C695.1 497.6 719.6 516.0 738.0 537.5 L793.2 552.8 C817.7 558.9 826.9 568.1 826.9 583.5 L826.9 601.9 L379.2 601.9 Z" fill="#0A2540" opacity="0.96"/><path d="M529.5 534.4 C550.9 509.9 600.0 503.7 652.1 506.8 C682.8 509.9 701.2 522.1 713.5 537.5 Z" fill="#071c30" opacity="0.55"/><circle cx="483.5" cy="604.9" r="26.1" fill="#071c30"/><circle cx="483.5" cy="604.9" r="12.3" fill="#B08D45"/><circle cx="725.7" cy="604.9" r="26.1" fill="#071c30"/><circle cx="725.7" cy="604.9" r="12.3" fill="#B08D45"/><rect x="56" y="54" width="212" height="36" rx="8" fill="#0A2540" opacity="0.92"/><text x="74" y="79" font-family="Georgia,'Times New Roman',serif" font-size="15" letter-spacing="0.10em" font-weight="600" fill="#C9A663" opacity="1" text-anchor="start">INVENTARIO</text><text x="74" y="762" font-family="Georgia,'Times New Roman',serif" font-size="14" letter-spacing="0.16em" font-weight="600" fill="#B08D45" opacity="1" text-anchor="start">Sedán · 3/4 trasera</text></svg>