<svg xmlns="http://www.w3.org/2000/svg" width="1200" height="900" viewBox="0 0 1200 900" role="img" preserveAspectRatio="xMidYMid slice"><defs><linearGradient id="bg" x1="0" y1="0" x2="1" y2="1"><stop offset="0%" stop-color="#7a1f2b"/><stop offset="100%" stop-color="#b0443a"/></linearGradient><radialGradient id="cg" cx="50%" cy="50%" r="50%"><stop offset="0%" stop-color="#C9A663" stop-opacity="0.95"/><stop offset="18%" stop-color="#C9A663" stop-opacity="0.6"/><stop offset="45%" stop-color="#C9A663" stop-opacity="0.22"/><stop offset="100%" stop-color="#C9A663" stop-opacity="0"/></radialGradient></defs><rect width="1200" height="900" fill="url(#bg)"/><circle cx="960" cy="250" r="280" fill="url(#cg)"/><circle cx="960" cy="250" r="48" fill="#C9A663" opacity="0.85"/><path d="M0 665 C300 705 700 645 1000 695 C1100 712 1160 690 1200 700 L1200 900 L0 900 Z" fill="#000" opacity="0.25"/><path d="M462.4 723.3 C467.3 706.0 496.9 701.1 526.5 698.6 L573.4 681.3 C593.1 656.7 640.0 649.3 686.9 651.7 C716.5 654.2 736.2 669.0 751.0 686.3 L795.4 698.6 C815.1 703.5 822.5 710.9 822.5 723.3 L822.5 738.1 L462.4 738.1 Z" fill="#0a0f16" opacity="0.92"/><path d="M583.3 683.8 C600.5 664.1 640.0 659.1 681.9 661.6 C706.6 664.1 721.4 673.9 731.3 686.3 Z" fill="#071c30" opacity="0.55"/><circle cx="546.3" cy="740.5" r="21.0" fill="#071c30"/><circle cx="546.3" cy="740.5" r="9.9" fill="#B08D45"/><circle cx="741.1" cy="740.5" r="21.0" fill="#071c30"/><circle cx="741.1" cy="740.5" r="9.9" fill="#B08D45"/><rect x="0" y="0" width="1200" height="6" fill="#C9A663"/><line x1="80" y1="128" x2="210" y2="128" stroke="#C9A663" stroke-width="1.4" opacity="0.7"/><text x="80" y="156" font-family="Georgia,'Times New Roman',serif" font-size="15" letter-spacing="0.24em" font-weight="600" fill="#C9A663" opacity="1" text-anchor="start">ORIGEN · SUBASTAS</text><text x="80" y="228" font-family="Georgia,'Times New Roman',serif" font-size="48" letter-spacing="0.02em" font-weight="700" fill="#FAF7F2" opacity="1" text-anchor="start">Subastas</text><text x="80" y="278" font-family="Georgia,'Times New Roman',serif" font-size="18" letter-spacing="0.05em" font-weight="500" fill="#E8DAC0" opacity="0.88" text-anchor="start">Copart · IAAI · Manheim</text></svg>