<svg xmlns="http://www.w3.org/2000/svg" width="1600" height="900" viewBox="0 0 1600 900" role="img" preserveAspectRatio="xMidYMid slice"><defs><linearGradient id="bg" x1="0" y1="0" x2="0.4" y2="1"><stop offset="0%" stop-color="#071c30"/><stop offset="55%" stop-color="#0A2540"/><stop offset="100%" stop-color="#0F2F4F"/></linearGradient><radialGradient id="hg" cx="50%" cy="50%" r="50%"><stop offset="0%" stop-color="#C9A663" stop-opacity="0.95"/><stop offset="18%" stop-color="#C9A663" stop-opacity="0.6"/><stop offset="45%" stop-color="#C9A663" stop-opacity="0.22"/><stop offset="100%" stop-color="#C9A663" stop-opacity="0"/></radialGradient></defs><rect width="1600" height="900" fill="url(#bg)"/><circle cx="1230" cy="270" r="360" fill="url(#hg)"/><circle cx="1230" cy="270" r="64" fill="#C9A663" opacity="0.9"/><rect x="0" y="560" width="1600" height="130" fill="#0d3047" opacity="0.5"/><path d="M0 650 C320 605 540 665 780 625 C1060 580 1320 665 1600 605 L1600 900 L0 900 Z" fill="#071c30" opacity="0.9"/><path d="M0 668 C360 724 720 666 1080 704 C1320 728 1460 694 1600 708" fill="none" stroke="#B08D45" stroke-width="2" opacity="0.4"/><path d="M741.8 679.9 C746.3 664.0 773.5 659.5 800.7 657.2 L843.8 641.3 C861.9 618.7 905.0 611.9 948.1 614.1 C975.3 616.4 993.4 630.0 1007.0 645.9 L1047.8 657.2 C1065.9 661.7 1072.7 668.5 1072.7 679.9 L1072.7 693.5 L741.8 693.5 Z" fill="#0b1825" opacity="0.96"/><path d="M852.9 643.6 C868.7 625.5 905.0 620.9 943.5 623.2 C966.2 625.5 979.8 634.5 988.9 645.9 Z" fill="#071c30" opacity="0.55"/><circle cx="818.9" cy="695.7" r="19.3" fill="#071c30"/><circle cx="818.9" cy="695.7" r="9.1" fill="#B08D45"/><circle cx="997.9" cy="695.7" r="19.3" fill="#071c30"/><circle cx="997.9" cy="695.7" r="9.1" fill="#B08D45"/><line x1="120" y1="150" x2="260" y2="150" stroke="#C9A663" stroke-width="1.4" opacity="0.7"/><text x="120" y="200" font-family="Georgia,'Times New Roman',serif" font-size="32" letter-spacing="0.05em" font-weight="700" fill="#FAF7F2" opacity="1" text-anchor="start">ITV COSTA BLANCA</text><text x="120" y="250" font-family="Georgia,'Times New Roman',serif" font-size="16" letter-spacing="0.22em" font-weight="600" fill="#C9A663" opacity="1" text-anchor="start">IMPORTACIÓN DE VEHÍCULOS · LLAVE EN MANO</text><text x="120" y="832" font-family="Georgia,'Times New Roman',serif" font-size="13" letter-spacing="0.28em" font-weight="600" fill="#E8DAC0" opacity="0.7" text-anchor="start">ALEMANIA · MUNDO · SUBASTAS</text></svg>