<svg xmlns="http://www.w3.org/2000/svg" width="1200" height="630" viewBox="0 0 1200 630" role="img" preserveAspectRatio="xMidYMid slice"><defs><linearGradient id="bg" x1="0" y1="0" x2="1" y2="1"><stop offset="0%" stop-color="#071c30"/><stop offset="60%" stop-color="#0A2540"/><stop offset="100%" stop-color="#0F2F4F"/></linearGradient><radialGradient id="og" cx="50%" cy="50%" r="50%"><stop offset="0%" stop-color="#C9A663" stop-opacity="0.95"/><stop offset="18%" stop-color="#C9A663" stop-opacity="0.6"/><stop offset="45%" stop-color="#C9A663" stop-opacity="0.22"/><stop offset="100%" stop-color="#C9A663" stop-opacity="0"/></radialGradient></defs><rect width="1200" height="630" fill="url(#bg)"/><circle cx="1010" cy="170" r="240" fill="url(#og)"/><circle cx="1010" cy="170" r="46" fill="#C9A663" opacity="0.9"/><path d="M0 475 C300 445 600 492 900 458 C1050 440 1130 472 1200 455 L1200 630 L0 630 Z" fill="#071c30" opacity="0.9"/><path d="M655.2 526.1 C658.7 514.0 679.5 510.5 700.3 508.8 L733.2 496.7 C747.1 479.3 780.0 474.1 812.9 475.9 C833.7 477.6 847.6 488.0 858.0 500.1 L889.2 508.8 C903.1 512.3 908.3 517.5 908.3 526.1 L908.3 536.5 L655.2 536.5 Z" fill="#0b1825" opacity="0.96"/><path d="M740.1 498.4 C752.3 484.5 780.0 481.1 809.5 482.8 C826.8 484.5 837.2 491.5 844.1 500.1 Z" fill="#071c30" opacity="0.55"/><circle cx="714.1" cy="538.3" r="14.7" fill="#071c30"/><circle cx="714.1" cy="538.3" r="6.9" fill="#B08D45"/><circle cx="851.1" cy="538.3" r="14.7" fill="#071c30"/><circle cx="851.1" cy="538.3" r="6.9" fill="#B08D45"/><rect x="80" y="150" width="46" height="46" rx="11" fill="#C9A663"/><text x="103" y="182" font-family="Georgia,'Times New Roman',serif" font-size="19" letter-spacing="0" font-weight="800" fill="#0A2540" opacity="1" text-anchor="middle">ITV</text><line x1="80" y1="250" x2="200" y2="250" stroke="#C9A663" stroke-width="1.4" opacity="0.7"/><text x="80" y="300" font-family="Georgia,'Times New Roman',serif" font-size="40" letter-spacing="0.04em" font-weight="700" fill="#FAF7F2" opacity="1" text-anchor="start">ITV COSTA BLANCA</text><text x="80" y="346" font-family="Georgia,'Times New Roman',serif" font-size="20" letter-spacing="0.03em" font-weight="500" fill="#E8DAC0" opacity="1" text-anchor="start">Importación de vehículos llave en mano</text><text x="80" y="392" font-family="Georgia,'Times New Roman',serif" font-size="16" letter-spacing="0.18em" font-weight="600" fill="#C9A663" opacity="1" text-anchor="start">Alemania · Mundo · Subastas</text></svg>